<svg width="22" height="22" viewBox="0 0 22 22" fill="none" xmlns="http://www.w3.org/2000/svg">
<path d="M20 0.5H1.99531C1.17031 0.5 0.5 1.17969 0.5 2.01406V19.9859C0.5 20.8203 1.17031 21.5 1.99531 21.5H20C20.825 21.5 21.5 20.8203 21.5 19.9859V2.01406C21.5 1.17969 20.825 0.5 20 0.5ZM6.84687 18.5H3.73438V8.47812H6.85156V18.5H6.84687ZM5.29062 7.10938C4.29219 7.10938 3.48594 6.29844 3.48594 5.30469C3.48594 4.31094 4.29219 3.5 5.29062 3.5C6.28437 3.5 7.09531 4.31094 7.09531 5.30469C7.09531 6.30312 6.28906 7.10938 5.29062 7.10938ZM18.5141 18.5H15.4016V13.625C15.4016 12.4625 15.3781 10.9672 13.7844 10.9672C12.1625 10.9672 11.9141 12.2328 11.9141 13.5406V18.5H8.80156V8.47812H11.7875V9.84687H11.8297C12.2469 9.05937 13.2641 8.22969 14.7781 8.22969C17.9281 8.22969 18.5141 10.3062 18.5141 13.0062V18.5Z" fill="white"/>
</svg>
