<svg width="20" height="28" viewBox="0 0 20 28" fill="none" xmlns="http://www.w3.org/2000/svg">
<path d="M10 0.666748C4.84 0.666748 0.666664 4.84008 0.666664 10.0001C0.666664 12.3201 1.33333 14.4934 2.54666 16.4534C3.81333 18.5067 5.48 20.2667 6.76 22.3201C7.38666 23.3201 7.84 24.2534 8.32 25.3334C8.66666 26.0667 8.94666 27.3334 10 27.3334C11.0533 27.3334 11.3333 26.0667 11.6667 25.3334C12.16 24.2534 12.6 23.3201 13.2267 22.3201C14.5067 20.2801 16.1733 18.5201 17.44 16.4534C18.6667 14.4934 19.3333 12.3201 19.3333 10.0001C19.3333 4.84008 15.16 0.666748 10 0.666748ZM10 13.6667C8.16 13.6667 6.66666 12.1734 6.66666 10.3334C6.66666 8.49341 8.16 7.00008 10 7.00008C11.84 7.00008 13.3333 8.49341 13.3333 10.3334C13.3333 12.1734 11.84 13.6667 10 13.6667Z" fill="black"/>
</svg>
