<svg width="24" height="24" viewBox="0 0 24 24" fill="none" xmlns="http://www.w3.org/2000/svg">
<path d="M4.82667 10.3867C6.74667 14.16 9.84 17.24 13.6133 19.1733L16.5467 16.24C16.9067 15.88 17.44 15.76 17.9067 15.92C19.4 16.4133 21.0133 16.68 22.6667 16.68C23.4 16.68 24 17.28 24 18.0133V22.6667C24 23.4 23.4 24 22.6667 24C10.1467 24 0 13.8533 0 1.33333C0 0.6 0.6 0 1.33333 0H6C6.73333 0 7.33333 0.6 7.33333 1.33333C7.33333 3 7.6 4.6 8.09333 6.09333C8.24 6.56 8.13333 7.08 7.76 7.45333L4.82667 10.3867Z" fill="white"/>
</svg>
