<svg width="22" height="22" viewBox="0 0 22 22" fill="none" xmlns="http://www.w3.org/2000/svg">
<path d="M19.25 0.5H2.75C1.50781 0.5 0.5 1.50781 0.5 2.75V19.25C0.5 20.4922 1.50781 21.5 2.75 21.5H19.25C20.4922 21.5 21.5 20.4922 21.5 19.25V2.75C21.5 1.50781 20.4922 0.5 19.25 0.5ZM16.9578 7.94375C16.9672 8.075 16.9672 8.21094 16.9672 8.34219C16.9672 12.4062 13.8734 17.0891 8.22031 17.0891C6.47656 17.0891 4.85938 16.5828 3.5 15.7109C3.74844 15.7391 3.9875 15.7484 4.24063 15.7484C5.67969 15.7484 7.00156 15.2609 8.05625 14.4359C6.70625 14.4078 5.57188 13.5219 5.18281 12.3031C5.65625 12.3734 6.08281 12.3734 6.57031 12.2469C5.16406 11.9609 4.10938 10.7234 4.10938 9.22812V9.19062C4.51719 9.42031 4.99531 9.56094 5.49687 9.57969C5.0752 9.2992 4.72952 8.91869 4.49069 8.4721C4.25186 8.02552 4.1273 7.52675 4.12813 7.02031C4.12812 6.44844 4.27813 5.92344 4.54531 5.46875C6.05938 7.33437 8.33281 8.55313 10.8828 8.68438C10.4469 6.59844 12.0078 4.90625 13.8828 4.90625C14.7688 4.90625 15.5656 5.27656 16.1281 5.87656C16.8219 5.74531 17.4875 5.4875 18.0781 5.13594C17.8484 5.84844 17.3656 6.44844 16.7281 6.82812C17.3469 6.7625 17.9469 6.58906 18.5 6.35C18.0828 6.96406 17.5578 7.50781 16.9578 7.94375Z" fill="white"/>
</svg>
