<svg width="24" height="16" viewBox="0 0 24 16" fill="none" xmlns="http://www.w3.org/2000/svg">
<path d="M22.9023 2.50346C22.6406 1.51804 21.8695 0.741958 20.8905 0.478583C19.1159 0 12 0 12 0C12 0 4.88418 0 3.10956 0.478583C2.13051 0.742 1.35943 1.51804 1.09772 2.50346C0.622223 4.28958 0.622223 8.01617 0.622223 8.01617C0.622223 8.01617 0.622223 11.7427 1.09772 13.5289C1.35943 14.5143 2.13051 15.258 3.10956 15.5214C4.88418 16 12 16 12 16C12 16 19.1158 16 20.8905 15.5214C21.8695 15.258 22.6406 14.5143 22.9023 13.5289C23.3778 11.7427 23.3778 8.01617 23.3778 8.01617C23.3778 8.01617 23.3778 4.28958 22.9023 2.50346ZM9.67272 11.3996V4.63271L15.6202 8.01625L9.67272 11.3996Z" fill="white"/>
</svg>
